<?xml version="1.0" encoding="utf-8"?>
<!-- Generator: Adobe Illustrator 27.5.0, SVG Export Plug-In . SVG Version: 6.00 Build 0)  -->
<svg version="1.1" xmlns="http://www.w3.org/2000/svg" xmlns:xlink="http://www.w3.org/1999/xlink" x="0px" y="0px"
	 viewBox="0 0 500 500" style="enable-background:new 0 0 500 500;" xml:space="preserve">
<g id="BACKGROUND">
	<rect x="0" style="fill:#FFFFFF;" width="500" height="500"/>
</g>
<g id="OBJECTS">
	<g>
		<path style="fill:#E3EDFC;" d="M465.107,194.854c-6.072-68.656-68.144-120.116-136.733-113.329
			c-41.655,4.122-76.497,28.259-95.941,61.94c-11.244,19.476-33.011,30.224-55.271,27.026c-9.929-1.426-20.193-1.671-30.628-0.598
			c-67.817,6.972-117.85,67.788-111.609,135.676c6.353,69.107,67.745,119.715,136.693,112.893
			c41.772-4.133,76.693-28.395,96.105-62.224c11.194-19.508,33.377-29.764,55.654-26.665c9.605,1.336,19.52,1.567,29.596,0.57
			C421.188,323.392,471.132,262.97,465.107,194.854z"/>
	</g>
	<g>
		<g>
			<path style="fill:#FFD985;" d="M358.68,186.6c51.229,49.281,21.372,100.765,14.236,135.991
				c-7.136,35.226,15.817,84.94-3.208,115.244c-19.025,30.304-73.566,38.086-84.424-15.934
				C274.425,367.881,358.68,186.6,358.68,186.6z"/>
			<path style="fill:#CCAA66;" d="M388.021,253.551c-13.974-25.864-32.297-27.695-32.297-27.695s-31.739,20.387-2.97,48.367
				c28.769,27.98,12.392,62.183,12.392,62.183c-5.419-7.515-16.074-11.75-16.074-11.75c21.732,18.67,21.623,54.642,21.623,54.642
				c-6.839-14.43-22.71-23.634-22.71-23.634c32.774,26.323,18.481,63.977,18.481,63.977c-5.261-40.152-36.935-49.004-36.935-49.004
				s13.591,10.884,17.422,30.447c3.832,19.563-14.129,34.768-14.129,34.768c12.194-22.071,2.129-43.693,2.129-43.693
				c2.555,26.731-21.877,50.275-46.074,42c16.133,40.297,63.394,31.451,80.829,3.678c19.025-30.304-3.928-80.019,3.208-115.244
				C376.802,303.406,387.425,279.399,388.021,253.551z"/>
			<path style="fill:none;stroke:#1C1C26;stroke-width:3.677;stroke-miterlimit:10;" d="M358.68,186.6
				c51.229,49.281,21.372,100.765,14.236,135.991c-7.136,35.226,15.817,84.94-3.208,115.244
				c-19.025,30.304-73.566,38.086-84.424-15.934C274.425,367.881,358.68,186.6,358.68,186.6z"/>
			<path style="fill:none;stroke:#1C1C26;stroke-width:3.677;stroke-miterlimit:10;" d="M372.634,324.082
				c18.447-56.161-10.316-96.656-36.451-85.957"/>
			<path style="fill:none;stroke:#1C1C26;stroke-width:3.677;stroke-miterlimit:10;" d="M304.312,321.981
				c34.068-20.937,64.135,11.155,71.119,57.316"/>
			<path style="fill:none;stroke:#1C1C26;stroke-width:3.677;stroke-miterlimit:10;" d="M333.831,461.047
				c29.186-11.642,31.315-58.344,6.653-82.287c-23.232-22.555-50.694-11.125-53.083,4.533"/>
		</g>
		<g>
			<g>
				<g>
					<path style="fill:#D9A172;" d="M174.262,168.387c30.887-59.434,9.596-82.273-16.726-117.111
						c-26.322-34.839-32.903-33.29-36.774-7.742c-3.871,25.548-58.839,130.871,22.452,165.113L174.262,168.387z"/>
					<path style="fill:#FFC69F;" d="M157.536,51.276c-9.525-12.607-16.456-20.426-21.618-24.09
						c-0.869,33.73,11.301,43.708,19.587,46.594c3.663,1.276,5.625,5.228,4.333,8.886c-5.66,16.024-14.924,52.182,11.503,63.707
						c3.812,1.663,7.697,2.554,11.593,2.831C200.159,103.528,180.82,82.094,157.536,51.276z"/>
					<path style="fill:#A37252;" d="M103.406,168.073c5.735,16.748,17.746,31.281,39.807,40.574l5.814-7.539l4.694-23.996
						C153.721,177.112,125.428,200.059,103.406,168.073z"/>
					<path style="fill:none;stroke:#1C1C26;stroke-width:3.677;stroke-miterlimit:10;" d="M174.262,168.387
						c30.887-59.434,9.596-82.273-16.726-117.111c-26.322-34.839-32.903-33.29-36.774-7.742
						c-3.871,25.548-58.839,130.871,22.452,165.113L174.262,168.387z"/>
				</g>
				<path style="fill:#725246;" d="M129.998,54.566c0,23.807,18.244,26.336,18.244,26.336s-23.055,46.89,1.552,74.503
					c0,0-12.129,12-15.355,24.516C134.439,179.921,97.686,148.05,129.998,54.566z"/>
				<path style="fill:none;stroke:#1C1C26;stroke-width:3.9294;stroke-miterlimit:10;" d="M129.998,54.566
					c0,23.807,18.244,26.336,18.244,26.336s-23.055,46.89,1.552,74.503c0,0-12.129,12-15.355,24.516
					C134.439,179.921,97.686,148.05,129.998,54.566z"/>
				<g>
					<path style="fill:#1C1C26;" d="M136.671,73.119c-1.857,4.234-3.441,8.841-4.832,13.393c-1.371,4.585-2.578,9.236-3.466,13.959
						c-0.925,4.715-1.636,9.488-2.06,14.304c-0.511,4.817-0.56,9.667-0.65,14.566c-0.2-1.204-0.388-2.414-0.559-3.627
						c-0.173-1.213-0.377-2.428-0.462-3.651c-0.197-2.445-0.401-4.9-0.414-7.361c-0.168-4.928,0.187-9.865,0.774-14.772
						c0.599-4.91,1.585-9.776,2.909-14.554c0.649-2.393,1.426-4.753,2.26-7.094c0.912-2.332,1.785-4.608,2.988-6.924L136.671,73.119
						z"/>
				</g>
			</g>
			<g>
				<g>
					<path style="fill:#D9A172;" d="M325.738,168.387c-30.887-59.434-9.596-82.273,16.726-117.111
						c26.323-34.839,32.903-33.29,36.774-7.742c3.871,25.548,58.839,130.871-22.452,165.113L325.738,168.387z"/>
					<path style="fill:#FFC69F;" d="M342.465,51.276c9.525-12.607,16.455-20.426,21.617-24.09
						c0.869,33.73-11.301,43.708-19.587,46.594c-3.663,1.276-5.625,5.228-4.333,8.886c5.66,16.024,14.924,52.182-11.503,63.707
						c-3.812,1.663-7.697,2.554-11.593,2.831C299.841,103.528,319.18,82.094,342.465,51.276z"/>
					<path style="fill:#A37252;" d="M396.594,168.073c-5.735,16.748-17.746,31.281-39.807,40.574l-5.814-7.539l-4.694-23.996
						C346.279,177.112,374.572,200.059,396.594,168.073z"/>
					<path style="fill:none;stroke:#1C1C26;stroke-width:3.677;stroke-miterlimit:10;" d="M325.738,168.387
						c-30.887-59.434-9.596-82.273,16.726-117.111c26.323-34.839,32.903-33.29,36.774-7.742
						c3.871,25.548,58.839,130.871-22.452,165.113L325.738,168.387z"/>
				</g>
				<path style="fill:#725246;" d="M370.002,54.566c0,23.807-18.244,26.336-18.244,26.336s23.055,46.89-1.552,74.503
					c0,0,12.129,12,15.355,24.516C365.561,179.921,402.314,148.05,370.002,54.566z"/>
				<path style="fill:none;stroke:#1C1C26;stroke-width:3.9294;stroke-miterlimit:10;" d="M370.002,54.566
					c0,23.807-18.244,26.336-18.244,26.336s23.055,46.89-1.552,74.503c0,0,12.129,12,15.355,24.516
					C365.561,179.921,402.314,148.05,370.002,54.566z"/>
				<g>
					<path style="fill:#1C1C26;" d="M366.84,71.356c1.203,2.316,2.076,4.592,2.988,6.924c0.834,2.341,1.611,4.701,2.26,7.094
						c1.324,4.779,2.31,9.645,2.909,14.554c0.587,4.908,0.942,9.844,0.774,14.772c-0.013,2.462-0.217,4.917-0.414,7.361
						c-0.085,1.223-0.289,2.438-0.462,3.651c-0.17,1.214-0.359,2.423-0.559,3.627c-0.089-4.899-0.139-9.748-0.65-14.566
						c-0.424-4.816-1.135-9.589-2.06-14.304c-0.888-4.723-2.095-9.374-3.466-13.959c-1.39-4.552-2.975-9.159-4.832-13.393
						L366.84,71.356z"/>
				</g>
			</g>
		</g>
		<path style="fill:#D9A172;" d="M366.465,231.544c0-64.836-52.56-117.396-117.396-117.396s-117.396,52.56-117.396,117.396
			c0,20.921,5.479,40.56,15.071,57.571c-4.548,7.632-7.043,15.903-7.043,24.546c0,38.335,48.966,58.676,109.369,58.676
			c60.403,0,109.369-20.34,109.369-58.676c0-8.642-2.496-16.914-7.044-24.546C360.986,272.104,366.465,252.465,366.465,231.544z"/>
		<path style="fill:#A37252;" d="M366.672,238.439c-1.064,18.338-6.33,35.548-14.86,50.676c4.382,7.355,6.852,15.304,7.027,23.607
			c-9.293-34.587-54.526-28.545-54.526-28.545l22-66.67C326.312,217.506,354.981,245.837,366.672,238.439z"/>
		<path style="fill:#A37252;" d="M131.883,238.439c1.064,18.338,6.33,35.548,14.86,50.676c-4.383,7.355-6.853,15.304-7.027,23.607
			c9.293-34.587,54.526-28.545,54.526-28.545l-22-66.67C172.242,217.506,143.574,245.837,131.883,238.439z"/>
		<path style="fill:#A37252;" d="M346.607,205.252l-68.042-79.653l-51.993-9.289c-9.64,1.871-18.857,4.92-27.498,8.994
			c0.034,19.709,4.462,55.837,33.814,76.304l-4.387-15.494c0,0,15.796,18.943,55.511,24.697l-28.605-46.894
			C255.406,163.918,286.133,206.326,346.607,205.252z"/>
		<path style="fill:#A37252;" d="M149.726,307.602c0,0-1.064,11.641,9.097,23.932c6.383,7.72,2.434,13.529-1.385,16.783
			c9.516,7.707,22.41,13.608,37.575,17.631l8.257-43.511l-43.093-14.835H149.726z"/>
		<path style="fill:#A37252;" d="M349.04,307.602c0,0,1.065,11.641-9.097,23.932c-6.383,7.72-2.434,13.529,1.385,16.783
			c-9.516,7.707-22.41,13.608-37.575,17.631l-8.257-43.511l43.093-14.835H349.04z"/>
		<g>
			<path style="fill:#1C1C26;" d="M336.184,152.847c-6.227-5.003-12.267-9.909-18.674-14.326
				c-6.328-4.504-13.056-8.441-20.13-11.613c-14.143-6.34-29.505-9.882-44.974-10.256c-7.73-0.231-15.488,0.26-23.118,1.554
				c-7.626,1.302-15.132,3.335-22.377,6.085c-7.241,2.76-14.209,6.26-20.765,10.426c-1.67,0.995-3.224,2.164-4.874,3.198
				c-1.634,1.058-3.188,2.229-4.838,3.287c-0.832,0.521-1.595,1.13-2.398,1.693l-2.438,1.668c-1.616,1.131-3.201,2.31-4.931,3.365
				c1.156-1.639,2.416-3.198,3.72-4.723c1.368-1.454,2.739-2.924,4.209-4.285c1.495-1.328,2.977-2.69,4.577-3.896
				c0.799-0.604,1.601-1.207,2.414-1.794c0.803-0.603,1.622-1.181,2.475-1.71c6.682-4.442,13.819-8.215,21.273-11.232
				c14.895-6.086,31.116-8.889,47.207-8.459c16.095,0.493,32.121,4.235,46.645,11.168c7.263,3.447,14.197,7.592,20.585,12.454
				C326.084,140.395,331.816,146.137,336.184,152.847z"/>
		</g>
		<g>
			<path style="fill:#1C1C26;" d="M148.195,171.457c-4.39,9.332-8.032,18.853-10.539,28.673c-1.242,4.908-2.262,9.868-2.904,14.881
				c-0.651,5.011-0.968,10.059-1.003,15.105c-0.024,10.091,1.133,20.184,3.618,29.959c1.252,4.883,2.803,9.689,4.614,14.398
				c1.827,4.704,3.979,9.281,6.356,13.743l0.508,0.954l-0.53,0.881l-0.001,0.001c-3.359,5.624-5.658,11.865-6.451,18.321
				c-0.802,6.449-0.149,13.082,2.126,19.135c2.253,6.072,6.096,11.501,10.811,16.04c4.714,4.562,10.262,8.276,16.133,11.36
				c11.801,6.143,24.836,9.849,38.011,12.242c13.211,2.363,26.675,3.342,40.126,3.357c13.451-0.015,26.915-0.994,40.126-3.357
				c13.175-2.393,26.21-6.099,38.011-12.242c5.871-3.085,11.419-6.798,16.133-11.36c4.715-4.539,8.557-9.968,10.811-16.04
				c2.275-6.053,2.928-12.686,2.126-19.135c-0.793-6.455-3.092-12.697-6.451-18.321l-0.001-0.001l-0.53-0.876l0.508-0.959
				c2.36-4.453,4.495-9.019,6.312-13.708c1.804-4.693,3.328-9.489,4.561-14.357c2.451-9.741,3.661-19.785,3.631-29.839
				c-0.026-5.027-0.354-10.053-0.984-15.045c-0.629-4.994-1.63-9.938-2.877-14.821c-2.49-9.783-6.078-19.259-10.299-28.647
				c6.214,8.229,10.747,17.741,13.743,27.687c2.937,9.97,4.543,20.362,4.692,30.781c0.192,10.417-1.031,20.877-3.655,30.971
				c-1.301,5.05-2.967,10.005-4.977,14.812c-1.997,4.811-4.3,9.495-6.962,13.963l-0.022-1.834l0.001,0.001
				c3.583,5.996,6.079,12.736,6.939,19.743c0.871,6.982,0.166,14.221-2.329,20.865c-2.47,6.656-6.665,12.55-11.695,17.39
				c-5.035,4.869-10.869,8.759-16.977,11.97c-6.126,3.198-12.55,5.733-19.1,7.776c-6.552,2.046-13.231,3.618-19.962,4.827
				c-13.47,2.408-27.136,3.399-40.772,3.414c-13.636-0.016-27.302-1.006-40.772-3.414c-6.731-1.209-13.41-2.781-19.962-4.827
				c-6.55-2.043-12.974-4.577-19.1-7.776c-6.109-3.211-11.943-7.101-16.977-11.97c-5.03-4.84-9.226-10.734-11.696-17.39
				c-2.496-6.644-3.2-13.883-2.329-20.865c0.859-7.007,3.355-13.747,6.939-19.743l0.001-0.001l-0.022,1.834
				c-2.66-4.488-4.96-9.191-6.955-14.02c-2.012-4.823-3.654-9.802-4.936-14.871c-2.59-10.129-3.848-20.61-3.613-31.056
				c0.086-5.223,0.551-10.437,1.352-15.593c0.809-5.154,1.913-10.266,3.45-15.246C137.494,189.27,142.052,179.761,148.195,171.457z"
				/>
		</g>
		<g>
			<ellipse style="fill:#A37252;" cx="192.965" cy="239.819" rx="46.699" ry="39.526"/>
			<ellipse style="fill:#A37252;" cx="305.248" cy="239.819" rx="46.699" ry="39.526"/>
			<ellipse style="fill:#725246;" cx="249.97" cy="239.819" rx="46.699" ry="39.526"/>
		</g>
		<g>
			<path style="fill:#D9A172;" d="M154.713,294.924c-3.374,27.845,24.33,37.771,24.33,37.771s-10.436,10.065,14.796,85.826
				L250,425.535l56.161-7.014c25.232-75.761,14.796-85.826,14.796-85.826s27.703-9.926,24.33-37.771
				c-0.572-4.718-4.576-8.275-9.329-8.275H164.042C159.29,286.649,155.285,290.206,154.713,294.924z"/>
			<path style="fill:#A37252;" d="M214.536,297.004c-9.425,5.304-16.586-6.815-16.586-6.815l33.097-7.816l-3.484,5.934
				L214.536,297.004z"/>
			<path style="fill:#A37252;" d="M284.012,297.004c9.425,5.304,16.586-6.815,16.586-6.815l-33.097-7.816l3.484,5.934
				L284.012,297.004z"/>
			<path style="fill:#A37252;" d="M276.461,402.703c42.065-29.089,29.871-75.298,29.871-75.298
				c23.161-3.871,29.484-19.802,29.484-19.802l9.795-2.009c-3.595,19.762-24.079,27.102-24.079,27.102s10.436,10.065-14.796,85.826
				l-8.958,1.119C274.627,417.826,261.456,413.079,276.461,402.703z"/>
			<path style="fill:#A37252;" d="M224.113,402.703c-42.064-29.089-29.871-75.298-29.871-75.298
				c-23.161-3.871-29.484-19.802-29.484-19.802l-9.795-2.009c3.595,19.762,24.079,27.102,24.079,27.102
				s-10.436,10.065,14.796,85.826l8.958,1.119C225.947,417.826,239.118,413.079,224.113,402.703z"/>
			<path style="fill:#FFE8C2;" d="M250,259.722L250,259.722c-34.945,43.43-47.566,104.095-37.871,159.979l37.59,5.835l38.166-5.924
				C297.552,363.752,284.927,303.129,250,259.722L250,259.722z"/>
			<ellipse style="fill:#FFF5E6;" cx="250" cy="317.409" rx="25.299" ry="45.513"/>
			<path style="fill:none;stroke:#1C1C26;stroke-width:3.677;stroke-miterlimit:10;" d="M155.395,307.602
				c3.944,17.738,23.647,25.093,23.647,25.093s-10.436,10.065,14.796,85.826L250,425.535l56.161-7.014
				c25.232-75.761,14.796-85.826,14.796-85.826s21.257-7.615,24.265-28.218"/>
		</g>
		<g>
			<g>
				<path style="fill:#1C1C26;" d="M239.205,277.662c-0.76,1.272-1.533,2.547-2.337,3.803c-0.928,1.165-1.835,2.36-2.81,3.49
					c-2.054,2.16-4.277,4.168-6.644,5.853c-2.339,1.762-4.725,3.272-7.024,4.853c-1.131,0.799-2.24,1.605-3.332,2.424l-1.572,1.283
					l-0.787,0.642l-0.717,0.705c-3.92,3.669-6.88,8.271-9.019,13.365c-0.501,1.286-1.072,2.556-1.524,3.873l-1.24,4.011
					c-0.47,1.331-0.761,2.709-1.097,4.082c-0.324,1.375-0.666,2.753-1.037,4.133c0.257-5.659,0.655-11.438,2.47-16.984
					c0.327-1.421,0.949-2.75,1.493-4.113c0.284-0.676,0.541-1.367,0.852-2.034l1.086-1.934c0.371-0.641,0.718-1.299,1.114-1.927
					l1.318-1.802c0.457-0.586,0.846-1.239,1.374-1.763l1.525-1.632l0.765-0.816l0.825-0.739l1.656-1.476
					c1.122-0.941,2.3-1.808,3.457-2.674l3.484-2.473l1.732-1.199l1.668-1.223c4.44-3.238,8.284-6.953,11.14-11.571L239.205,277.662z
					"/>
			</g>
			<g>
				<path style="fill:#1C1C26;" d="M263.18,275.819c2.856,4.618,6.7,8.333,11.14,11.571l1.668,1.223l1.732,1.199l3.484,2.473
					c1.157,0.866,2.335,1.733,3.457,2.674l1.656,1.476l0.825,0.739l0.765,0.816l1.525,1.632c0.529,0.524,0.917,1.176,1.374,1.763
					l1.318,1.802c0.395,0.628,0.742,1.286,1.114,1.927l1.086,1.934c0.31,0.667,0.567,1.358,0.852,2.034
					c0.544,1.363,1.166,2.692,1.493,4.113c1.815,5.546,2.213,11.325,2.47,16.984c-0.371-1.381-0.713-2.758-1.037-4.133
					c-0.336-1.373-0.627-2.751-1.097-4.082l-1.24-4.011c-0.452-1.317-1.023-2.586-1.524-3.873
					c-2.139-5.093-5.099-9.696-9.019-13.365l-0.717-0.705l-0.787-0.642l-1.572-1.283c-1.092-0.819-2.201-1.626-3.332-2.424
					c-2.3-1.581-4.686-3.091-7.024-4.853c-2.366-1.685-4.589-3.693-6.644-5.853c-0.974-1.131-1.882-2.325-2.81-3.49
					c-0.803-1.256-1.576-2.53-2.337-3.803L263.18,275.819z"/>
			</g>
		</g>
		<g>
			<g>
				<g>
					
						<ellipse transform="matrix(0.9981 -0.0611 0.0611 0.9981 -14.5326 18.41)" style="fill-rule:evenodd;clip-rule:evenodd;fill:#B3CEFF;" cx="293.551" cy="246.665" rx="43.524" ry="43.523"/>
					
						<ellipse transform="matrix(0.9808 -0.1952 0.1952 0.9808 -41.8034 61.9895)" style="fill-rule:evenodd;clip-rule:evenodd;fill:#FFFFFF;" cx="293.551" cy="243.05" rx="38.144" ry="38.144"/>
					
						<ellipse transform="matrix(0.9903 -0.1392 0.1392 0.9903 -31.4708 43.2524)" style="fill-rule:evenodd;clip-rule:evenodd;fill:none;stroke:#1C1C26;stroke-width:4.4355;stroke-miterlimit:10;" cx="293.551" cy="246.665" rx="43.524" ry="43.523"/>
				</g>
				<ellipse style="fill-rule:evenodd;clip-rule:evenodd;fill:#1C1C26;" cx="294.162" cy="249.589" rx="10.15" ry="14.95"/>
			</g>
			<g>
				<g>
					
						<ellipse transform="matrix(0.999 -0.0443 0.0443 0.999 -10.7312 9.394)" style="fill-rule:evenodd;clip-rule:evenodd;fill:#B3CEFF;" cx="206.449" cy="246.665" rx="43.524" ry="43.523"/>
					
						<ellipse transform="matrix(0.0631 -0.998 0.998 0.0631 -49.1343 433.7624)" style="fill-rule:evenodd;clip-rule:evenodd;fill:#FFFFFF;" cx="206.449" cy="243.05" rx="38.144" ry="38.144"/>
					
						<ellipse transform="matrix(0.1305 -0.9914 0.9914 0.1305 -65.0493 419.1573)" style="fill-rule:evenodd;clip-rule:evenodd;fill:none;stroke:#1C1C26;stroke-width:4.4355;stroke-miterlimit:10;" cx="206.449" cy="246.665" rx="43.523" ry="43.524"/>
				</g>
				<path style="fill-rule:evenodd;clip-rule:evenodd;fill:#1C1C26;" d="M196.91,249.589c0,8.257,4.545,14.95,10.15,14.95
					c5.606,0,10.15-6.693,10.15-14.95c0-8.257-4.544-14.95-10.15-14.95C201.455,234.64,196.91,241.333,196.91,249.589z"/>
			</g>
		</g>
		<g>
			<path style="fill:#875B48;" d="M269.77,430.894c-7.121-1.348-13.997-0.896-19.77,0.953c-5.772-1.849-12.648-2.301-19.77-0.953
				c-17.122,3.242-29.152,15.636-26.871,27.682c2.281,12.047,18.01,19.184,35.132,15.942c4.187-0.793,8.066-2.136,11.509-3.884
				c3.443,1.748,7.323,3.091,11.509,3.884c17.122,3.242,32.851-3.896,35.132-15.942C298.922,446.53,286.891,434.136,269.77,430.894z
				"/>
			<path style="fill:#664E46;" d="M296.641,458.576c0.232-1.224,0.308-2.45,0.254-3.671c-4.256,1.327-9.048,2.05-14.397,2.05
				c-12.449,0-52.608,0-65.057,0c-5.325,0-10.097-0.717-14.338-2.033c-0.052,1.215,0.025,2.436,0.256,3.654
				c0.684,3.611,2.583,6.777,5.359,9.358c2.728,0.459,5.628,0.712,8.723,0.712c12.449,0,52.608,0,65.057,0
				c3.123,0,6.048-0.256,8.797-0.723C294.064,465.343,295.958,462.182,296.641,458.576z"/>
			<path style="fill:none;stroke:#1C1C26;stroke-width:3.677;stroke-miterlimit:10;" d="M269.77,430.894
				c-7.121-1.348-13.997-0.896-19.77,0.953c-5.772-1.849-12.648-2.301-19.77-0.953c-17.122,3.242-29.152,15.636-26.871,27.682
				c2.281,12.047,18.01,19.184,35.132,15.942c4.187-0.793,8.066-2.136,11.509-3.884c3.443,1.748,7.323,3.091,11.509,3.884
				c17.122,3.242,32.851-3.896,35.132-15.942C298.922,446.53,286.891,434.136,269.77,430.894z"/>
		</g>
		<g>
			<path style="fill:#875B48;" d="M282.498,376.495c-12.449,0-23.818,3.893-32.529,10.308c-8.711-6.415-20.08-10.308-32.529-10.308
				c-27.401,0-40.305,18.816-40.305,42.026c0,23.21,12.904,42.026,40.305,42.026c12.449,0,52.608,0,65.057,0
				c27.401,0,40.305-18.816,40.305-42.026C322.803,395.31,309.899,376.495,282.498,376.495z"/>
			<path style="fill:#B27762;" d="M217.441,387.269c12.449,0,23.818,3.893,32.529,10.308c8.711-6.415,20.079-10.308,32.529-10.308
				c25.245,0,38.175,15.975,40.055,36.639c0.161-1.765,0.25-3.56,0.25-5.387c0-23.21-12.904-42.026-40.305-42.026
				c-12.449,0-23.818,3.893-32.529,10.308c-8.711-6.415-20.08-10.308-32.529-10.308c-27.401,0-40.305,18.816-40.305,42.026
				c0,1.827,0.089,3.622,0.25,5.387C179.267,403.244,192.197,387.269,217.441,387.269z"/>
			<g>
				
					<ellipse transform="matrix(0.4064 -0.9137 0.9137 0.4064 -200.3616 496.9911)" style="fill:#664E46;" cx="282.327" cy="402.703" rx="24.783" ry="23.681"/>
				
					<ellipse transform="matrix(0.9137 -0.4064 0.4064 0.9137 -144.8774 123.2242)" style="fill:#664E46;" cx="217.673" cy="402.703" rx="23.681" ry="24.783"/>
			</g>
			<path style="fill:#664E46;" d="M282.498,448.856c-12.449,0-52.608,0-65.057,0c-25.058,0-37.985-15.739-40.014-36.181
				c-0.19,1.911-0.291,3.861-0.291,5.845c0,23.21,12.904,42.026,40.305,42.026c12.449,0,52.608,0,65.057,0
				c27.401,0,40.305-18.816,40.305-42.026c0-1.985-0.102-3.934-0.292-5.845C320.483,433.118,307.556,448.856,282.498,448.856z"/>
			<g>
				<path style="fill:#1C1C26;" d="M236.179,379.602c-3.896-0.446-7.617-0.967-11.364-1.198c-1.866-0.145-3.731-0.23-5.595-0.276
					c-1.867-0.081-3.724,0.091-5.583,0.157c-0.935,0.005-1.848,0.168-2.765,0.295l-2.751,0.388l-2.686,0.659l-1.343,0.327
					c-0.437,0.141-0.864,0.309-1.297,0.461l-2.588,0.934l-2.46,1.211c-0.843,0.364-1.6,0.874-2.363,1.371l-1.151,0.737l-0.576,0.368
					l-0.529,0.431l-2.113,1.727c-0.673,0.61-1.277,1.296-1.921,1.937c-0.308,0.334-0.656,0.632-0.933,0.995l-0.837,1.081
					c-0.535,0.737-1.174,1.397-1.613,2.204l-1.441,2.329c-0.426,0.809-0.806,1.645-1.213,2.464
					c-0.434,0.807-0.742,1.675-1.058,2.538l-0.482,1.291c-0.172,0.426-0.32,0.861-0.427,1.311l-0.732,2.667
					c-0.24,0.89-0.356,1.814-0.542,2.718c-0.409,1.805-0.481,3.672-0.712,5.51l-0.096,2.787l-0.046,1.393
					c0.004,0.464,0.033,0.929,0.048,1.393l0.107,2.786l0.306,2.763l0.156,1.381l0.264,1.36c0.184,0.904,0.331,1.819,0.543,2.715
					c0.514,1.766,0.933,3.566,1.656,5.252c0.579,1.747,1.479,3.339,2.261,4.987c0.978,1.53,1.849,3.141,3.038,4.514
					c1.049,1.488,2.402,2.702,3.653,4.006c1.42,1.119,2.756,2.348,4.341,3.242c1.478,1.054,3.169,1.747,4.789,2.563
					c0.837,0.351,1.712,0.62,2.566,0.937l1.287,0.46c0.436,0.132,0.888,0.219,1.332,0.332l2.671,0.643
					c0.901,0.169,1.821,0.259,2.731,0.394c1.813,0.326,3.673,0.329,5.52,0.419c0.911,0.056,1.867,0.06,2.831,0.052l2.876-0.002
					l5.751-0.004l23.005-0.018l23.005,0.069l5.751,0.018l2.876,0.009l2.783-0.107c3.716-0.069,7.349-0.782,10.892-1.707l2.584-0.914
					c0.426-0.162,0.874-0.278,1.283-0.478l1.229-0.596c0.806-0.419,1.67-0.741,2.433-1.235l2.304-1.457
					c2.937-2.124,5.617-4.632,7.74-7.606c2.076-2.993,3.803-6.257,4.983-9.753c0.339-0.856,0.522-1.769,0.793-2.65l0.376-1.333
					c0.125-0.445,0.185-0.907,0.281-1.36l0.528-2.73l0.312-2.771c0.049-0.462,0.112-0.923,0.15-1.386l0.053-1.397l0.101-2.794
					l-0.091-2.795c-0.019-0.466-0.02-0.933-0.053-1.397l-0.148-1.387c-0.279-3.719-1.146-7.35-2.276-10.861l-0.967-2.593
					c-0.354-0.85-0.793-1.659-1.184-2.492c-0.207-0.41-0.387-0.836-0.616-1.234l-0.725-1.169l-0.723-1.171
					c-0.231-0.398-0.482-0.781-0.779-1.131l-1.684-2.17c-0.599-0.69-1.266-1.319-1.894-1.983c-0.328-0.318-0.616-0.68-0.975-0.963
					l-1.063-0.867l-1.061-0.869l-0.532-0.433l-0.579-0.37l-2.312-1.484c-0.791-0.461-1.64-0.822-2.456-1.241l-1.236-0.609
					l-1.3-0.469l-2.603-0.931l-2.697-0.658l-1.348-0.331l-1.38-0.195l-2.761-0.39c-0.923-0.113-1.862-0.105-2.792-0.164
					c-3.73-0.3-7.474,0.068-11.199,0.424c-3.736,0.395-7.441,1.019-11.309,1.611c3.314-2.094,7.065-3.424,10.907-4.202
					c1.922-0.403,3.88-0.625,5.84-0.738c0.98-0.061,1.962-0.09,2.944-0.1c0.982-0.005,1.965,0.066,2.948,0.096
					c0.982,0.056,1.968,0.045,2.947,0.158l2.936,0.394l1.468,0.201l1.447,0.343l2.894,0.69l2.819,0.984l1.407,0.502l1.349,0.65
					c0.893,0.448,1.815,0.84,2.681,1.337l2.539,1.606l0.634,0.403l0.588,0.468l1.171,0.944l1.169,0.946
					c0.394,0.311,0.716,0.7,1.078,1.047c0.695,0.721,1.428,1.411,2.088,2.163l1.859,2.361c0.324,0.384,0.602,0.799,0.858,1.229
					l0.797,1.27l0.795,1.272c0.251,0.431,0.451,0.889,0.679,1.332c0.431,0.898,0.909,1.778,1.297,2.694l1.061,2.788
					c1.243,3.764,2.182,7.646,2.506,11.579l0.164,1.471c0.038,0.491,0.044,0.984,0.067,1.475l0.112,2.952l-0.086,2.953l-0.049,1.477
					c-0.037,0.491-0.099,0.982-0.148,1.473l-0.316,2.946l-0.544,2.921c-0.1,0.485-0.163,0.977-0.293,1.457l-0.394,1.437
					c-0.284,0.952-0.481,1.93-0.839,2.861c-1.253,3.786-3.108,7.375-5.383,10.686c-2.323,3.296-5.279,6.116-8.535,8.49l-2.547,1.633
					c-0.846,0.55-1.789,0.92-2.68,1.386l-1.356,0.663c-0.452,0.221-0.938,0.356-1.405,0.537l-2.833,1.018
					c-3.854,1.044-7.798,1.824-11.759,1.928l-2.963,0.129l-2.876,0.009l-5.751,0.018l-23.005,0.069l-23.005-0.018l-5.751-0.004
					l-2.876-0.002c-0.953,0.006-1.915,0.002-2.918-0.058c-1.981-0.097-3.965-0.111-5.937-0.46c-0.986-0.147-1.978-0.25-2.958-0.436
					l-2.921-0.705c-0.485-0.124-0.976-0.223-1.456-0.369l-1.422-0.506c-0.943-0.349-1.904-0.653-2.831-1.044
					c-1.807-0.9-3.674-1.688-5.335-2.862c-1.762-1.01-3.273-2.376-4.852-3.643c-1.41-1.451-2.91-2.83-4.084-4.483
					c-1.319-1.544-2.292-3.318-3.364-5.024c-0.872-1.809-1.837-3.584-2.462-5.488c-0.773-1.855-1.222-3.801-1.761-5.721
					c-0.223-0.969-0.377-1.952-0.568-2.927l-0.272-1.465l-0.16-1.477l-0.306-2.955l-0.096-2.962
					c-0.012-0.494-0.038-0.987-0.039-1.481l0.056-1.48l0.124-2.96c0.253-1.964,0.352-3.945,0.798-5.886
					c0.204-0.971,0.339-1.956,0.603-2.915l0.808-2.875c0.121-0.483,0.283-0.954,0.471-1.417l0.532-1.4
					c0.35-0.935,0.693-1.872,1.171-2.757c0.449-0.895,0.873-1.803,1.347-2.685l1.6-2.552c0.493-0.877,1.195-1.615,1.794-2.421
					l0.935-1.185c0.31-0.396,0.693-0.73,1.037-1.097c0.715-0.709,1.393-1.458,2.143-2.128l2.351-1.899l0.59-0.471l0.637-0.405
					l1.275-0.808l1.276-0.805c0.419-0.28,0.893-0.456,1.338-0.688l2.71-1.308l2.826-1.004c0.472-0.163,0.941-0.34,1.416-0.489
					l1.452-0.347l2.905-0.689l2.946-0.401c0.982-0.129,1.963-0.292,2.95-0.294c1.971-0.06,3.944-0.225,5.911-0.123
					c1.967,0.076,3.931,0.279,5.866,0.637C229.042,376.314,232.826,377.545,236.179,379.602z"/>
			</g>
		</g>
		<g>
			<g>
				
					<ellipse transform="matrix(0.4801 -0.8772 0.8772 0.4801 -199.6073 463.1267)" style="fill:#875B48;" cx="290.927" cy="399.968" rx="30.509" ry="21.674"/>
				<path style="fill:#664E46;" d="M278.165,426.05c14.34,10.065,25.856-6.497,25.856-6.497S289.76,429.534,278.165,426.05z"/>
				<path style="fill:#1C1C26;" d="M313.174,402.119c0,0,4.04,6.535,1.082,12.693c0,0-0.443-4.836-3.487-7.179L313.174,402.119z"/>
				<path style="fill:#B27762;" d="M272.26,396.838c8.09-14.78,23.161-22.103,33.661-16.356c4.844,2.652,7.865,7.625,8.924,13.661
					c0.631-9.201-2.584-17.279-9.27-20.938c-10.5-5.748-25.571,1.575-33.661,16.356c-4.358,7.961-5.797,16.46-4.56,23.507
					C267.715,407.82,269.322,402.207,272.26,396.838z"/>
				<g>
					<path style="fill:#1C1C26;" d="M276.278,426.73c-2.996-0.227-5.559-2.235-7.152-4.669c-1.625-2.451-2.681-5.209-3.308-8.02
						c-1.184-5.658-0.677-11.48,0.852-16.928c1.602-5.437,4.18-10.581,7.737-15.026c3.508-4.461,7.955-8.315,13.278-10.765
						c0.679-0.278,1.33-0.612,2.034-0.837l2.11-0.678l2.187-0.467c0.729-0.156,1.493-0.174,2.238-0.262
						c3.005-0.213,6.14,0.245,8.968,1.504c2.831,1.235,5.322,3.238,7.168,5.67c1.854,2.438,3.014,5.26,3.73,8.102
						c0.692,2.853,0.998,5.774,0.833,8.644c-0.151,2.866-0.543,5.716-1.339,8.445l-0.271,1.031l-0.341,1.008l-0.692,2.01
						l-0.83,1.954l-0.419,0.974l-0.5,0.935c-0.342,0.618-0.709,1.223-1.095,1.813c-0.41,0.577-0.854,1.131-1.342,1.652
						c-0.977,1.038-2.089,1.971-3.453,2.642c0.542-2.959,1.524-5.343,2.497-7.759c0.579-1.158,0.993-2.384,1.497-3.572l0.591-1.839
						l0.294-0.919l0.224-0.937c1.253-4.959,1.501-10.228,0.2-15.004c-0.641-2.377-1.654-4.63-3.104-6.498
						c-1.444-1.867-3.316-3.337-5.446-4.251c-4.259-1.838-9.417-1.403-13.913,0.714c-4.552,2.011-8.606,5.342-11.829,9.32
						c-3.285,3.951-5.695,8.63-7.317,13.507c-1.532,4.902-2.121,10.154-1.223,15.148c0.48,2.478,1.328,4.873,2.633,6.973
						c0.641,1.062,1.368,2.041,2.087,3.092c0.4,0.482,0.757,1.039,1.158,1.578C275.439,425.536,275.877,426.061,276.278,426.73z"/>
				</g>
				<path style="fill:#1C1C26;" d="M299.689,383.961c4.7,2.572,4.587,11.825-0.252,20.665c-4.839,8.841-12.572,13.922-17.271,11.35
					c-4.7-2.573-4.587-11.825,0.252-20.665C287.257,386.47,294.989,381.388,299.689,383.961z"/>
			</g>
			<g>
				
					<ellipse transform="matrix(0.8772 -0.4801 0.4801 0.8772 -166.3646 149.5033)" style="fill:#875B48;" cx="209.073" cy="399.968" rx="21.674" ry="30.509"/>
				<path style="fill:#664E46;" d="M221.835,426.05c-14.34,10.065-25.856-6.497-25.856-6.497S210.24,429.534,221.835,426.05z"/>
				<path style="fill:#1C1C26;" d="M186.826,402.119c0,0-4.04,6.535-1.082,12.693c0,0,0.443-4.836,3.487-7.179L186.826,402.119z"/>
				<path style="fill:#B27762;" d="M227.74,396.838c-8.09-14.78-23.161-22.103-33.661-16.356c-4.844,2.652-7.865,7.625-8.924,13.661
					c-0.631-9.201,2.584-17.279,9.27-20.938c10.5-5.748,25.571,1.575,33.661,16.356c4.358,7.961,5.796,16.46,4.56,23.507
					C232.285,407.82,230.678,402.207,227.74,396.838z"/>
				<g>
					<path style="fill:#1C1C26;" d="M223.722,426.73c0.401-0.669,0.839-1.194,1.255-1.716c0.402-0.539,0.758-1.096,1.158-1.578
						c0.719-1.052,1.447-2.03,2.087-3.092c1.306-2.1,2.154-4.495,2.633-6.973c0.898-4.994,0.309-10.246-1.223-15.148
						c-1.622-4.877-4.032-9.557-7.317-13.507c-3.223-3.977-7.277-7.309-11.829-9.32c-4.495-2.117-9.654-2.552-13.913-0.714
						c-2.13,0.914-4.002,2.384-5.446,4.251c-1.45,1.868-2.463,4.121-3.104,6.498c-1.301,4.776-1.053,10.045,0.2,15.004l0.224,0.937
						l0.294,0.919l0.591,1.839c0.504,1.187,0.918,2.413,1.497,3.572c0.972,2.416,1.955,4.8,2.497,7.759
						c-1.363-0.671-2.476-1.604-3.453-2.642c-0.488-0.52-0.932-1.074-1.342-1.652c-0.386-0.59-0.753-1.195-1.095-1.813l-0.5-0.935
						l-0.419-0.974l-0.83-1.954l-0.692-2.01l-0.341-1.008l-0.271-1.031c-0.796-2.73-1.188-5.58-1.339-8.445
						c-0.165-2.87,0.142-5.791,0.833-8.644c0.716-2.842,1.876-5.665,3.73-8.102c1.846-2.432,4.337-4.435,7.168-5.67
						c2.827-1.259,5.963-1.717,8.968-1.504c0.745,0.088,1.509,0.106,2.238,0.262l2.187,0.467l2.11,0.678
						c0.704,0.226,1.355,0.56,2.034,0.837c5.323,2.45,9.77,6.304,13.278,10.765c3.557,4.445,6.135,9.59,7.737,15.026
						c1.529,5.448,2.036,11.27,0.852,16.928c-0.627,2.811-1.683,5.569-3.308,8.02C229.281,424.495,226.718,426.504,223.722,426.73z"
						/>
				</g>
				<path style="fill:#1C1C26;" d="M200.311,383.961c-4.7,2.572-4.587,11.825,0.252,20.665c4.839,8.841,12.572,13.922,17.271,11.35
					c4.7-2.573,4.587-11.825-0.252-20.665C212.743,386.47,205.011,381.388,200.311,383.961z"/>
			</g>
		</g>
		<g>
			<path style="fill-rule:evenodd;clip-rule:evenodd;fill:#1C1C26;" d="M345.629,303.347c-6.533-1.325-11.798,4.65-11.798,4.65
				l18.923,4.052C352.754,312.049,352.162,304.671,345.629,303.347z"/>
			<path style="fill-rule:evenodd;clip-rule:evenodd;fill:#1C1C26;" d="M154.371,303.347c-6.533,1.324-7.125,8.703-7.125,8.703
				l18.923-4.052C166.169,307.997,160.904,302.022,154.371,303.347z"/>
		</g>
		<g>
			<g>
				<path style="fill:#D9A172;" d="M293.625,298.1l48.795-8.922C332.399,275.67,309.735,271.411,293.625,298.1z"/>
				<path style="fill:#FFC69F;" d="M304.312,289.216c0,5.48,6.781,4.757,15.948,4.757c9.167,0,17.25,0.723,17.25-4.757
					c0-5.48-7.431-9.922-16.599-9.922C311.744,279.294,304.312,283.736,304.312,289.216z"/>
				<g>
					<path style="fill:#1C1C26;" d="M293.625,298.1c1.271-5.075,4.219-9.513,8.036-13.109c3.775-3.617,8.487-6.562,13.789-7.771
						c5.276-1.247,10.94-0.679,15.804,1.466c4.876,2.115,8.942,5.907,11.165,10.491c-3.765-3.401-7.845-6.047-12.322-7.499
						c-4.44-1.531-9.221-1.587-13.634-0.378c-4.433,1.189-8.524,3.578-12.155,6.626C300.698,291.041,297.564,294.662,293.625,298.1z
						"/>
				</g>
			</g>
			<g>
				<path style="fill:#D9A172;" d="M206.375,298.1l-48.795-8.922C167.6,275.67,190.265,271.411,206.375,298.1z"/>
				<path style="fill:#FFC69F;" d="M194.243,289.216c0,5.48-6.781,4.757-15.948,4.757c-9.167,0-17.249,0.723-17.249-4.757
					c0-5.48,7.431-9.922,16.599-9.922C186.811,279.294,194.243,283.736,194.243,289.216z"/>
				<g>
					<path style="fill:#1C1C26;" d="M206.375,298.1c-3.939-3.438-7.073-7.059-10.683-10.173c-3.632-3.048-7.722-5.437-12.155-6.626
						c-4.413-1.208-9.194-1.152-13.634,0.378c-4.477,1.452-8.557,4.098-12.322,7.499c2.223-4.584,6.289-8.376,11.165-10.491
						c4.864-2.145,10.529-2.712,15.804-1.466c5.302,1.208,10.014,4.153,13.789,7.771C202.156,288.587,205.103,293.025,206.375,298.1
						z"/>
				</g>
			</g>
		</g>
		<g>
			<g>
				<g>
					<path style="fill-rule:evenodd;clip-rule:evenodd;fill:#D9A172;" d="M340.661,244.689c0.902-3.487,1.383-7.144,1.383-10.913
						c0-23.998-19.454-43.452-43.452-43.452c-18.26,0-33.879,11.269-40.309,27.227L340.661,244.689z"/>
					
						<ellipse transform="matrix(0.3504 -0.9366 0.9366 0.3504 4.7888 424.1986)" style="fill:#FFC69F;" cx="308.21" cy="208.647" rx="15.806" ry="27.032"/>
					<path style="fill-rule:evenodd;clip-rule:evenodd;fill:none;stroke:#1C1C26;stroke-width:3.677;stroke-miterlimit:10;" d="
						M340.661,244.689c0.902-3.487,1.383-7.144,1.383-10.913c0-23.998-19.454-43.452-43.452-43.452
						c-18.26,0-33.879,11.269-40.309,27.227L340.661,244.689z"/>
				</g>
				<g>
					<g>
						<path style="fill:#D9A172;" d="M338.098,252.199c-1.502,0-3.021-0.397-4.399-1.232c-43.135-26.152-71.948-23.132-72.233-23.1
							c-4.67,0.548-8.887-2.789-9.434-7.451c-0.547-4.662,2.789-8.886,7.451-9.433c1.405-0.167,34.954-3.702,83.03,25.446
							c4.014,2.434,5.295,7.661,2.861,11.675C343.776,250.742,340.971,252.199,338.098,252.199z"/>
					</g>
					<path style="fill:#A37252;" d="M335.07,232.953c8,3.355,6.968,15.484-5.419,8.258c-12.387-7.226-35.613-16.516-53.936-18.839
						s-15.355-10.194-3.613-9.807l-10.094-1.754c-1.452,0.056-2.326,0.147-2.526,0.171c-4.662,0.547-7.998,4.771-7.451,9.433
						c0.547,4.663,4.764,7.999,9.434,7.451c0.285-0.033,29.099-3.053,72.233,23.1c1.378,0.835,2.897,1.233,4.399,1.233
						c2.873,0,5.678-1.457,7.276-4.094c2.434-4.014,1.152-9.241-2.861-11.675c-1.852-1.123-3.674-2.181-5.482-3.208
						C334.19,232.361,333.04,232.102,335.07,232.953z"/>
					<g>
						<g>
							<path style="fill:#1C1C26;" d="M326.651,227.675c3.733,0.757,7.207,2.135,10.541,3.761c1.664,0.82,3.283,1.725,4.879,2.667
								l1.198,0.706c0.402,0.257,0.93,0.569,1.338,0.924c0.875,0.688,1.632,1.533,2.224,2.478c1.207,1.879,1.781,4.155,1.589,6.392
								c-0.162,2.244-1.115,4.406-2.604,6.088c-1.501,1.688-3.569,2.855-5.788,3.285c-2.217,0.431-4.591,0.133-6.627-0.885
								c-0.255-0.124-0.503-0.262-0.747-0.405l-0.595-0.336l-1.189-0.672l-2.378-1.345c-1.595-0.878-3.148-1.835-4.776-2.647
								c-3.24-1.654-6.435-3.401-9.765-4.86c-1.66-0.738-3.277-1.577-4.97-2.233l-5.04-2.063c-3.403-1.252-6.803-2.524-10.278-3.54
								c-6.907-2.16-13.981-3.803-21.122-4.656l-2.678-0.264c-0.893-0.082-1.784-0.113-2.676-0.173
								c-1.767-0.078-3.591-0.111-5.254,0.004l-0.714,0.051c-0.284,0.013-0.566,0.045-0.853,0.023
								c-0.572-0.005-1.14-0.067-1.703-0.164c-1.123-0.21-2.209-0.599-3.206-1.145c-2-1.092-3.595-2.863-4.524-4.932
								c-0.903-2.082-1.14-4.43-0.607-6.631c0.499-2.208,1.779-4.192,3.497-5.626c0.858-0.724,1.853-1.278,2.895-1.68
								c0.518-0.214,1.065-0.345,1.607-0.473c0.545-0.094,1.122-0.187,1.589-0.209c1.936-0.137,3.812-0.153,5.696-0.105
								c3.755,0.13,7.496,0.368,11.169,1.052c3.666,0.699,7.271,1.75,10.664,3.454c-3.795,0.144-7.438-0.097-11.066-0.347
								c-3.62-0.276-7.222-0.618-10.822-0.628c-1.793-0.013-3.599,0.039-5.329,0.194c-0.453,0.031-0.781,0.107-1.142,0.168
								c-0.348,0.096-0.7,0.177-1.028,0.327c-0.663,0.272-1.295,0.632-1.833,1.109c-1.077,0.943-1.877,2.223-2.156,3.619
								c-0.314,1.385-0.124,2.876,0.457,4.156c0.606,1.269,1.614,2.355,2.863,3.002c0.622,0.323,1.291,0.547,1.977,0.664
								c0.345,0.05,0.691,0.084,1.041,0.078c0.174,0.016,0.349-0.017,0.524-0.025l0.661-0.052c2.007-0.153,3.867-0.123,5.773-0.058
								c0.943,0.055,1.891,0.083,2.83,0.161l2.814,0.255c7.478,0.833,14.806,2.481,21.951,4.653
								c3.581,1.069,7.068,2.398,10.559,3.707l5.159,2.148c1.734,0.685,3.383,1.551,5.079,2.318
								c3.402,1.517,6.656,3.319,9.956,5.031c1.659,0.842,3.218,1.856,4.831,2.776l4.66,2.733c1.248,0.655,2.708,0.863,4.107,0.622
								c1.399-0.247,2.711-0.953,3.677-2c1.977-2.09,2.357-5.516,0.774-7.987c-0.37-0.621-0.849-1.176-1.413-1.632
								c-0.281-0.255-0.554-0.41-0.918-0.657l-1.167-0.715c-1.562-0.943-3.124-1.886-4.662-2.874
								C332.526,232.274,329.503,230.196,326.651,227.675z"/>
						</g>
					</g>
				</g>
			</g>
			<g>
				<g>
					<path style="fill-rule:evenodd;clip-rule:evenodd;fill:#D9A172;" d="M159.339,244.689c-0.902-3.487-1.383-7.144-1.383-10.913
						c0-23.998,19.454-43.452,43.452-43.452c18.26,0,33.879,11.269,40.309,27.227L159.339,244.689z"/>
					
						<ellipse transform="matrix(0.9366 -0.3504 0.3504 0.9366 -60.9538 80.438)" style="fill:#FFC69F;" cx="191.79" cy="208.647" rx="27.032" ry="15.806"/>
					<path style="fill-rule:evenodd;clip-rule:evenodd;fill:none;stroke:#1C1C26;stroke-width:3.677;stroke-miterlimit:10;" d="
						M159.339,244.689c-0.902-3.487-1.383-7.144-1.383-10.913c0-23.998,19.454-43.452,43.452-43.452
						c18.26,0,33.879,11.269,40.309,27.227L159.339,244.689z"/>
				</g>
				<g>
					<g>
						<path style="fill:#D9A172;" d="M161.902,252.199c1.502,0,3.021-0.397,4.399-1.232c43.135-26.152,71.948-23.132,72.233-23.1
							c4.67,0.548,8.887-2.789,9.434-7.451c0.547-4.662-2.789-8.886-7.451-9.433c-1.405-0.167-34.954-3.702-83.03,25.446
							c-4.014,2.434-5.295,7.661-2.861,11.675C156.224,250.742,159.029,252.199,161.902,252.199z"/>
					</g>
					<path style="fill:#A37252;" d="M164.93,232.953c-8,3.355-6.968,15.484,5.419,8.258s35.613-16.516,53.935-18.839
						c18.323-2.323,15.355-10.194,3.613-9.807l10.094-1.754c1.452,0.056,2.326,0.147,2.526,0.171
						c4.662,0.547,7.998,4.771,7.451,9.433c-0.547,4.663-4.764,7.999-9.434,7.451c-0.285-0.033-29.099-3.053-72.233,23.1
						c-1.378,0.835-2.898,1.233-4.399,1.233c-2.873,0-5.678-1.457-7.276-4.094c-2.434-4.014-1.152-9.241,2.861-11.675
						c1.852-1.123,3.674-2.181,5.482-3.208C165.81,232.361,166.96,232.102,164.93,232.953z"/>
					<g>
						<g>
							<path style="fill:#1C1C26;" d="M173.349,227.675c-2.852,2.521-5.875,4.599-8.947,6.586c-1.538,0.988-3.1,1.931-4.662,2.874
								l-1.167,0.715c-0.364,0.247-0.637,0.402-0.918,0.657c-0.564,0.456-1.044,1.011-1.413,1.632
								c-1.583,2.471-1.203,5.897,0.774,7.987c0.966,1.047,2.278,1.754,3.677,2c1.399,0.241,2.86,0.033,4.107-0.622l4.66-2.733
								c1.613-0.92,3.172-1.934,4.831-2.776c3.3-1.712,6.554-3.514,9.956-5.031c1.695-0.767,3.345-1.633,5.079-2.318l5.159-2.148
								c3.49-1.309,6.977-2.637,10.559-3.707c7.145-2.172,14.473-3.82,21.951-4.653l2.814-0.255c0.939-0.078,1.887-0.106,2.83-0.161
								c1.906-0.065,3.766-0.095,5.773,0.058l0.661,0.052c0.175,0.009,0.351,0.042,0.524,0.025c0.35,0.006,0.696-0.029,1.041-0.078
								c0.686-0.118,1.355-0.341,1.977-0.664c1.249-0.647,2.257-1.732,2.863-3.002c0.58-1.28,0.771-2.771,0.457-4.156
								c-0.279-1.396-1.079-2.677-2.156-3.619c-0.538-0.477-1.171-0.837-1.833-1.109c-0.328-0.149-0.681-0.231-1.028-0.327
								c-0.362-0.061-0.689-0.137-1.142-0.168c-1.731-0.155-3.536-0.207-5.329-0.194c-3.6,0.009-7.202,0.352-10.822,0.628
								c-3.628,0.25-7.271,0.491-11.066,0.347c3.393-1.704,6.998-2.755,10.664-3.454c3.673-0.684,7.414-0.922,11.169-1.052
								c1.884-0.047,3.76-0.032,5.696,0.105c0.467,0.022,1.044,0.115,1.589,0.209c0.542,0.128,1.089,0.259,1.607,0.473
								c1.043,0.402,2.038,0.956,2.895,1.68c1.717,1.434,2.998,3.418,3.497,5.626c0.534,2.201,0.297,4.549-0.607,6.631
								c-0.929,2.069-2.524,3.84-4.524,4.932c-0.997,0.547-2.083,0.935-3.206,1.145c-0.564,0.096-1.132,0.159-1.703,0.164
								c-0.286,0.021-0.568-0.01-0.853-0.023l-0.714-0.051c-1.663-0.115-3.487-0.081-5.254-0.004
								c-0.892,0.06-1.783,0.092-2.676,0.173l-2.678,0.264c-7.141,0.852-14.215,2.496-21.122,4.656
								c-3.476,1.015-6.875,2.288-10.278,3.54l-5.04,2.063c-1.693,0.655-3.311,1.495-4.971,2.233
								c-3.33,1.459-6.525,3.206-9.765,4.86c-1.628,0.812-3.181,1.77-4.776,2.647l-2.378,1.345l-1.189,0.672l-0.595,0.336
								c-0.244,0.143-0.492,0.281-0.747,0.405c-2.036,1.019-4.41,1.316-6.627,0.885c-2.219-0.43-4.287-1.596-5.788-3.285
								c-1.489-1.682-2.443-3.844-2.604-6.088c-0.192-2.237,0.382-4.513,1.589-6.392c0.592-0.946,1.35-1.79,2.224-2.478
								c0.408-0.355,0.936-0.667,1.338-0.924l1.197-0.706c1.596-0.941,3.215-1.846,4.879-2.667
								C166.142,229.81,169.616,228.432,173.349,227.675z"/>
						</g>
					</g>
				</g>
			</g>
		</g>
		<g>
			<path style="fill:#FFD985;" d="M369.959,161.082c0,0-65.8-42.551-82.794-65.288c-22.858-30.583-85.955-31.551-97.626,33.546
				c15.49-6.323,13.731,1.29,13.731,1.29c3.415,38.452,36.394,54.968,36.394,54.968c-16.97-24.387-17.357-47.226-17.357-47.226
				c16.774,66.064,71.855,61.92,71.855,61.92c-39.726-25.146-44.192-55.727-44.192-55.727
				c25.598,45.419,95.605,51.871,95.605,51.871c-7.757-25.708-26.691-39.809-36.451-45.595
				C337.297,160.308,369.959,161.082,369.959,161.082z"/>
			<path style="fill:#FFEBC2;" d="M222.731,143.098c-5.964-1.916-12.27-4.586-18.919-8.107c2.888,18.91,12.94,32.071,21.677,40.22
				c1.895-1.373,3.82-2.725,5.785-4.049C225.559,159.186,223.48,148.817,222.731,143.098z"/>
			<path style="fill:#FFEBC2;" d="M299.396,108.703c-7.379,18.265-23.212,35.892-48.117,38.085c1.928,3.148,4.077,6.096,6.397,8.866
				c21.762-11.231,45.151-20.112,66.201-26.885C315.082,122.102,306.439,115.151,299.396,108.703z"/>
			<path style="fill:#FFEBC2;" d="M250.462,146.853c-7.992,0.591-16.904-0.401-26.756-3.45c3.018,10.068,6.962,18.372,11.453,25.203
				c6.137-3.953,12.555-7.68,19.148-11.185C252.148,152.759,251.02,149.064,250.462,146.853z"/>
			<path style="fill:#CCAA66;" d="M222.307,138.373c16.774,66.064,71.855,61.92,71.855,61.92
				c-39.726-25.146-44.192-55.727-44.192-55.727c25.598,45.419,95.605,51.871,95.605,51.871
				c-7.757-25.708-26.691-39.809-36.451-45.595c28.173,9.466,60.836,10.24,60.836,10.24s-7.463-4.827-18.005-12.093
				c-51.127-3.805-70.615-27.262-70.615-27.262c5.806,30.387,25.548,42.774,25.548,42.774
				c-32.903-12.968-46.839-47.828-46.839-47.828c13.355,43.14,52.452,63.248,52.452,63.248
				c-59.79-20.282-71.806-64.387-71.806-64.387c-0.581,45.097,26.71,72.826,26.71,72.826
				c-37.742-20.464-47.419-67.794-47.419-67.794l-2.773,31.548c-6.644-8.323-15.42-26.323-15.42-26.323l-0.048,1.54
				c2.046,1.031,1.527,3.298,1.527,3.298c3.415,38.452,36.394,54.968,36.394,54.968
				C222.694,161.211,222.307,138.373,222.307,138.373z"/>
			<g>
				<path style="fill:#FFEBC2;" d="M190.04,126.77c-0.174,0.847-0.344,1.7-0.5,2.57c1.011-0.413,1.945-0.763,2.814-1.063
					C191.586,127.786,190.815,127.284,190.04,126.77z"/>
			</g>
			<path style="fill:none;stroke:#1C1C26;stroke-width:3.677;stroke-miterlimit:10;" d="M369.959,161.082
				c0,0-65.8-42.551-82.794-65.288c-22.858-30.583-85.955-31.551-97.626,33.546c15.49-6.323,13.731,1.29,13.731,1.29
				c3.415,38.452,36.394,54.968,36.394,54.968c-16.325-25.032-17.357-47.226-17.357-47.226c16.774,66.064,71.855,61.92,71.855,61.92
				c-35.613-23.598-44.192-55.727-44.192-55.727c25.598,45.419,95.605,51.871,95.605,51.871
				c-7.757-25.708-26.691-39.809-36.451-45.595C337.074,159.168,369.959,161.082,369.959,161.082z"/>
		</g>
	</g>
</g>
</svg>
