<svg width="51" height="68" viewBox="0 0 51 68" fill="none" xmlns="http://www.w3.org/2000/svg">
<path d="M39.3815 13.6662C38.2222 13.7868 37.1157 14.3138 36.194 15.1843C35.3944 14.3332 34.4299 13.748 33.3931 13.4845C32.3562 13.221 31.2815 13.2881 30.2718 13.6793L28.7753 14.5638C28.0335 13.3331 26.9998 12.4132 25.8156 11.9296C24.6313 11.446 23.3541 11.4224 22.1585 11.8619L20.9506 12.3144L19.5477 6.68749C19.3047 5.58364 18.8652 4.55948 18.2609 3.6886C17.6566 2.81773 16.9024 2.12175 16.0526 1.65068C15.2028 1.17961 14.2784 0.945147 13.3459 0.964128C12.4133 0.983109 11.4958 1.25507 10.6592 1.76046C9.37795 2.64731 8.38298 4.04516 7.83977 5.72151C7.29657 7.39786 7.23788 9.25166 7.67346 10.9746L13.1372 32.89L9.35221 30.4223C8.63024 29.9303 7.83524 29.6205 7.01407 29.511C6.19289 29.4016 5.36216 29.4948 4.57083 29.7851C3.79784 30.0744 3.08259 30.5582 2.47078 31.2056C1.85898 31.853 1.36409 32.6498 1.01774 33.545C0.663245 34.2998 0.439224 35.1359 0.359613 36.0013C0.280003 36.8668 0.346505 37.7431 0.554984 38.5757C1.15874 40.6588 2.2117 42.5024 3.60192 43.9104C5.86356 46.625 19.3327 61.979 23.356 66.4622C23.668 66.8412 24.0589 67.108 24.4861 67.2334C24.9133 67.3589 25.3603 67.3382 25.7786 67.1736L48.487 58.6653C49.0409 58.481 49.5271 58.071 49.8656 57.5028C50.204 56.9345 50.3745 56.2419 50.349 55.539L49.5828 34.4541C49.61 34.1375 49.5755 33.8175 49.4821 33.5204L45.975 19.4531C45.5629 17.723 44.6892 16.2124 43.4938 15.1632C42.2983 14.114 40.8503 13.5869 39.3815 13.6662ZM45.3193 53.3758L25.6306 60.7527C20.708 55.3111 9.03744 41.8738 6.97042 39.4101C6.7758 39.1592 4.97723 37.2426 5.31272 36.4692L6.0475 35.7082C6.36847 35.6097 6.70756 35.6549 7.00378 35.8356L16.2246 42.0954C16.6558 42.3271 17.1312 42.4066 17.5972 42.3247C18.0633 42.2429 18.5014 42.003 18.8621 41.6321C19.2229 41.2612 19.4919 40.7741 19.6389 40.2258C19.7858 39.6775 19.8048 39.0897 19.6938 38.5288L12.3473 9.06149C12.2494 8.66877 12.2828 8.24444 12.4401 7.88187C12.5974 7.5193 12.8657 7.24818 13.1861 7.12815C13.5064 7.00812 13.8525 7.04902 14.1483 7.24185C14.4441 7.43467 14.6652 7.76363 14.7631 8.15635L19.9315 28.8871C20.0102 29.275 20.1526 29.6392 20.35 29.9573C20.5474 30.2755 20.7956 30.541 21.0794 30.7377C21.3633 30.9344 21.6769 31.0581 22.001 31.1013C22.3252 31.1444 22.6531 31.1062 22.9648 30.9888C23.6055 30.7487 24.1422 30.2065 24.4568 29.4814C24.7714 28.7562 24.8381 27.9076 24.6423 27.1221L22.7964 19.7183C22.6985 19.3255 22.7319 18.9012 22.8892 18.5387C23.0465 18.1761 23.3148 17.905 23.6351 17.7849C23.9433 17.7097 24.2633 17.7781 24.5326 17.9766C24.8018 18.1751 25.0011 18.4895 25.0914 18.8584L27.3064 27.743C27.5023 28.5285 27.9446 29.1864 28.5361 29.572C29.1276 29.9577 29.8198 30.0395 30.4606 29.7994C31.1013 29.5594 31.6379 29.0171 31.9525 28.292C32.2671 27.5668 32.3338 26.7182 32.138 25.9327L31.0305 21.4904C30.9668 21.3098 30.9351 21.1147 30.9373 20.9179C30.9396 20.7211 30.9758 20.5271 31.0436 20.3488C31.1115 20.1704 31.2093 20.0117 31.3308 19.883C31.4523 19.7544 31.5946 19.6587 31.7484 19.6024C31.9058 19.5174 32.0768 19.4772 32.2487 19.485C32.4205 19.4928 32.5887 19.5483 32.7405 19.6472C32.8923 19.7462 33.0239 19.8861 33.1252 20.0565C33.2265 20.2268 33.295 20.4231 33.3255 20.6306L35.1713 28.0344C35.3672 28.8199 35.8095 29.4778 36.401 29.8634C36.9925 30.2491 37.6848 30.3309 38.3255 30.0908C38.6374 29.9745 38.9268 29.7815 39.1759 29.5235C39.4249 29.2656 39.6285 28.9481 39.7742 28.5905C39.9199 28.2329 40.0046 27.8426 40.0231 27.4436C40.0417 27.0445 39.9937 26.645 39.8821 26.2694L38.7746 21.8271C38.6767 21.4344 38.7101 21.01 38.8674 20.6475C39.0247 20.2849 39.293 20.0138 39.6133 19.8937C39.9337 19.7737 40.2798 19.8146 40.5756 20.0074C40.8713 20.2003 41.0925 20.5292 41.1904 20.9219L44.6975 34.9893C44.7908 35.2864 44.8254 35.6064 44.7982 35.923L45.3193 53.3758Z" fill="#262626"/>
</svg>
